<?xml version="1.0" standalone="no"?>
<!DOCTYPE svg PUBLIC "-//W3C//DTD SVG 20010904//EN"
 "http://www.w3.org/TR/2001/REC-SVG-20010904/DTD/svg10.dtd">
<svg version="1.0" xmlns="http://www.w3.org/2000/svg"
 width="1079.000000pt" height="1280.000000pt" viewBox="0 0 1079.000000 1280.000000"
 preserveAspectRatio="xMidYMid meet">
<metadata>
Created by potrace 1.15, written by Peter Selinger 2001-2017
</metadata>
<g transform="translate(0.000000,1280.000000) scale(0.100000,-0.100000)"
fill="#000000" stroke="none">
<path d="M5500 12174 c-754 -35 -1404 -201 -2043 -520 -486 -244 -897 -539
-1305 -939 -462 -452 -791 -905 -1067 -1470 -348 -712 -539 -1463 -606 -2380
-15 -206 -15 -812 0 -1025 65 -913 259 -1677 610 -2396 362 -740 823 -1323
1431 -1809 243 -194 475 -349 780 -519 606 -337 1293 -521 2154 -577 234 -15
828 -6 1031 16 282 30 486 65 727 125 1484 370 2530 1407 3061 3035 62 189
116 384 108 389 -11 6 -925 279 -939 280 -7 1 -40 -71 -81 -181 -244 -645
-525 -1166 -855 -1583 -122 -155 -417 -449 -553 -553 -277 -211 -576 -359
-876 -436 -672 -173 -1405 -59 -1967 306 -407 265 -792 721 -1023 1212 -297
634 -418 1323 -458 2626 -42 1364 84 2563 358 3410 365 1127 975 1740 1874
1882 161 25 575 25 739 -1 644 -101 1180 -432 1647 -1016 314 -392 602 -935
835 -1574 64 -175 182 -542 209 -650 14 -55 -46 -51 477 -31 l383 14 24 28
c24 27 25 32 20 128 -3 55 -23 519 -45 1030 -22 512 -42 973 -45 1025 -2 52
-23 532 -45 1065 -22 534 -43 994 -46 1023 l-5 52 -455 0 -454 0 -4 -22 c-2
-13 -12 -70 -21 -128 -33 -206 -99 -364 -192 -461 -161 -169 -351 -148 -1023
114 -725 281 -1336 448 -1818 497 -115 11 -427 19 -542 14z"/>
</g>
</svg>
