<?xml version="1.0" standalone="no"?>
<!DOCTYPE svg PUBLIC "-//W3C//DTD SVG 20010904//EN"
 "http://www.w3.org/TR/2001/REC-SVG-20010904/DTD/svg10.dtd">
<svg version="1.0" xmlns="http://www.w3.org/2000/svg"
 width="960.000000pt" height="1280.000000pt" viewBox="0 0 960.000000 1280.000000"
 preserveAspectRatio="xMidYMid meet">
<metadata>
Created by potrace 1.15, written by Peter Selinger 2001-2017
</metadata>
<g transform="translate(0.000000,1280.000000) scale(0.100000,-0.100000)"
fill="#000000" stroke="none">
<path d="M777 12587 c-31 -116 -102 -374 -156 -572 -54 -198 -146 -533 -204
-745 -58 -212 -176 -641 -261 -953 l-156 -568 0 -114 0 -115 1590 -2 1590 -3
0 -4758 0 -4757 111 0 c69 0 250 17 482 45 398 48 1280 154 1957 236 228 27
510 61 625 74 116 14 225 27 242 30 l33 6 2 4562 3 4562 1483 3 1482 2 0 1640
0 1640 -4382 0 -4383 0 -58 -213z"/>
</g>
</svg>
